<svg version="1.1" id="Layer_1" xmlns="http://www.w3.org/2000/svg" xmlns:xlink="http://www.w3.org/1999/xlink" x="0px" y="0px" viewBox="0 0 224 65.6" style="enable-background:new 0 0 224 65.6;" xml:space="preserve">
 <style type="text/css">
  .st0{fill:#1A4E8A;}
 </style>
 <g>
  <g>
   <path class="st0" d="M0,39.2h12.3c5.6,0,11.3,1.2,11.3,7.2c0,2.3-1.3,4.5-3.8,5.2v0.2c3.1,1,5.1,3.1,5.1,6.2
			c0,5.3-5.5,7.2-10.6,7.2H0V39.2z M10.7,49.2c1.5,0,3.3-0.1,3.3-1.9c0-1.9-2-1.8-3.5-1.8H9.8v3.7H10.7z M9.8,59h1.2
			c1.7,0,4.2,0,4.2-2.2c0-2.2-2.7-2.1-4.4-2.1h-1V59z">
   </path>
   <polygon class="st0" points="26.6,39.2 47.9,39.2 47.9,46.3 38.2,46.3 38.2,48.8 47,48.8 47,55.6 38.2,55.6 38.2,58.1 48.2,58.1 
			48.2,65.2 26.6,65.2 		">
   </polygon>
   <path class="st0" d="M62.8,39.2l4,6.8h0.4c0.4-0.8,0.7-1.7,1.2-2.5l2.5-4.3h14.5L73.2,54v11.2H60.6V54L48.2,39.2H62.8z">
   </path>
   <path class="st0" d="M121.9,52.3c0,8.3-9.5,13.3-21.1,13.3c-11.6,0-21.1-5-21.1-13.3c0-8.2,9.5-13.5,21.1-13.5
			C112.4,38.8,121.9,44.1,121.9,52.3 M93.7,52.4c0,3,2.9,5,7.1,5c4.2,0,7.1-2,7.1-5c0-2.8-2.7-5.1-7.1-5.1
			C96.4,47.3,93.7,49.7,93.7,52.4">
   </path>
   <path class="st0" d="M166.9,39.2h21.9c19.9,0,35.1,3.8,35.1,13.4c0,7.7-12.4,12.6-29.8,12.6h-27.3V39.2z M188.5,57.4h1.3
			c7.2,0,12.7-1.4,12.7-4.9c0-3.7-4.8-5.2-12.7-5.2h-1.3V57.4z">
   </path>
   <polygon class="st0" points="137.9,39.2 123.6,39.2 123.6,65.2 137.8,65.2 137.8,52 150.4,65.2 164.6,65.2 164.6,39.2 150.4,39.2 
			150.4,52.7 		">
   </polygon>
   <path class="st0" d="M4.4,5.3h1.2c4.1,0,7.4,0.8,7.4,5.7c0,4.9-3.4,5.8-7.5,5.8H4.4V5.3z M4.4,20.1H7c3.9,0,8.9,1,8.9,5.9
			c0,4.9-4.2,6.1-8.2,6.1H4.4V20.1z M0,35.9h8.1c6.2,0,12.1-2.7,12.1-9.6c0-4-2.9-8-7-8.7v-0.1c2.4-1.1,3.7-4,3.7-6.5
			c0-7.8-6.2-9.5-12.8-9.5H0V35.9z">
   </path>
   <polygon class="st0" points="22.8,1.4 41.5,1.4 41.5,5.4 27.1,5.4 27.1,15 41.1,15 41.1,19 27.1,19 27.1,32 41.5,32 41.5,35.9 
			22.8,35.9 		">
   </polygon>
   <path class="st0" d="M49.9,5.4h1.5C60.4,5.4,68,8.6,68,18.7c0,10-7.7,13.3-16.6,13.3h-1.5V5.4z M45.6,35.9h7.1
			c11,0,19.7-5.7,19.7-17.4c0-11.5-8.9-17-19.6-17h-7.2V35.9z">
   </path>
   <path class="st0" d="M89,5.3h1.2c4.1,0,7.4,0.8,7.4,5.7c0,4.9-3.4,5.8-7.5,5.8H89V5.3z M89,20.1h2.7c3.9,0,8.9,1,8.9,5.9
			c0,4.9-4.2,6.1-8.2,6.1H89V20.1z M84.6,35.9h8.1c6.2,0,12.1-2.7,12.1-9.6c0-4-2.9-8-7-8.7v-0.1c2.4-1.1,3.7-4,3.7-6.5
			c0-7.8-6.2-9.5-12.8-9.5h-4.3V35.9z">
   </path>
   <path class="st0" d="M127.5,23.3h-12.4l6.2-13.9L127.5,23.3z M129.3,27.3l4,8.6h4.7L121.3,0l-16.7,35.9h4.7l4-8.6H129.3z">
   </path>
   <polygon class="st0" points="145.6,35.9 141.3,35.9 141.3,5.4 133,5.4 133,1.4 153.9,1.4 153.9,5.4 145.6,5.4 		">
   </polygon>
   <polygon class="st0" points="177.2,15.3 177.2,1.4 181.6,1.4 181.6,35.9 177.2,35.9 177.2,19.3 160.6,19.3 160.6,35.9 156.3,35.9 
			156.3,1.4 160.6,1.4 160.6,15.3 		">
   </polygon>
   <path class="st0" d="M200,19.1l7.6,9.2c-2.1,2.1-4.7,4.5-7.9,4.5c-3.3,0-6.4-3-6.4-6.3c0-3.2,3.9-5.5,6.2-7.2L200,19.1z
			 M200.9,13.8l-1.1-1.4c-1-1.3-2.1-2.5-2.1-4.2c0-2.2,1.8-3.6,3.8-3.6c2.3,0,4,1.3,4,3.7c0,2.5-2.4,3.9-4.1,5.2L200.9,13.8z
			 M213.9,35.9h5.3l-6.2-7.5l4.2-4.9l-2.7-2.8l-4,4.6l-7.1-8.6c2.9-2.1,6.2-4.6,6.2-8.5c0-4.5-3.7-7.1-7.9-7.1
			c-4.5,0-7.9,2.7-7.9,7.4c0,2.9,1.8,5.4,3.8,7.4l-2.1,1.5c-3.3,2.4-6,4.7-6,9c0,5.9,4.8,10,10.5,10c4.1,0,7.7-2.3,10.3-5.3
			L213.9,35.9z">
   </path>
  </g>
 </g>
</svg>