<?xml version="1.0" encoding="utf-8"?>
<!-- Generator: Adobe Illustrator 22.0.1, SVG Export Plug-In . SVG Version: 6.00 Build 0)  -->
<svg version="1.1" id="Layer_1" xmlns="http://www.w3.org/2000/svg" xmlns:xlink="http://www.w3.org/1999/xlink" x="0px" y="0px"
	 width="781.96891858" height="127.88232067" viewBox="0 0 1000 163.5388794" enable-background="new 0 0 1000 163.5388794"
	 xml:space="preserve">
<g>
	<g>
		<path fill="#004B8C" d="M29.1307945,74.3875198c0.008873,0-7.4085941-1.7622681-7.4085941-1.7622681
			c-7.0090389-1.6024475-9.1441746-3.2004623-9.1441746-6.8359451c0-5.0204086,5.8993092-6.3609734,9.3838806-6.3609734
			c4.4389248,0,7.7992096,2.0951729,9.9831123,6.2233772c0.1775932,0.3418121,0.4882851,0.5859528,0.8611526,0.6835861
			c0.3728676,0.0932388,0.767952,0.0266571,1.0875816-0.1819992l6.5340996-4.3012886
			c0.5726089-0.3773384,0.7767563-1.1230736,0.4749413-1.7356491c-3.1960335-6.463047-9.7612209-10.0230713-18.5014381-10.0230713
			c-10.2139435,0-20.5166855,5.2246208-20.5166855,16.907856c0,5.1624756,2.4813166,11.9362793,14.3199635,14.8881683
			c0.0221481,0.0044403,7.1067104,1.6556931,7.1067104,1.6556931c5.5708733,1.3583069,8.806797,2.9341431,8.806797,6.9469299
			c0,5.0026627-5.4376411,7.2398682-10.8220463,7.2398682c-6.5296955,0-10.3915386-3.8618393-12.4778385-7.0978317
			c-0.1997442-0.3062897-0.514904-0.5193405-0.8744965-0.5947952c-0.3595247-0.0710144-0.7323928,0.0044327-1.034277,0.2086182
			L0.5929418,94.549118c-0.6170442,0.4217072-0.7768255,1.260643-0.3639951,1.8820877
			c4.7274661,7.0579071,11.8163624,10.6401138,21.0671482,10.6401138c9.9254036,0,21.5154705-4.5188141,21.5154705-17.2407913
			C42.8115654,82.3598175,37.4448395,76.2962646,29.1307945,74.3875198 M76.0058365,19.6555672h-7.3109283
			c-0.750206,0-1.3627777,0.6081371-1.3627777,1.3583088v83.3718796c0,0.750206,0.6125717,1.3583145,1.3627777,1.3583145h7.3109283
			c0.7501373,0,1.3583069-0.6081085,1.3583069-1.3583145V21.013876
			C77.3641434,20.2637043,76.7559738,19.6555672,76.0058365,19.6555672 M127.5106659,50.0932884
			c-15.6871414,0-27.5080414,12.2425346-27.5080414,28.4845772c0,16.242012,12.109436,28.493454,28.1605835,28.493454
			c9.4948273,0,17.342865-3.8529968,23.3309784-11.4346848c0.4616547-0.5859222,0.3683929-1.4248886-0.2042236-1.8953934
			l-5.6463165-4.6342316c-0.3062286-0.2485809-0.7013092-0.3551254-1.0875244-0.2885437
			c-0.3861389,0.0621414-0.7279816,0.2929764-0.9365997,0.6214447c-2.4902649,4.0083466-7.8569183,8.291893-15.4563141,8.291893
			c-8.913414,0-15.9979095-6.5828934-17.436142-15.8069992h41.5839081c0.7501373,0,1.3583069-0.6081314,1.3583069-1.3583069
			v-3.3070145C153.669281,61.3725967,142.9137421,50.1997948,127.5106659,50.0932884 M110.8735733,73.2511368
			c0.8788986-7.2753983,8.5005112-13.8228035,16.6282196-13.8228035c9.0553818,0,14.7949142,5.2823296,15.363121,13.8228035
			H110.8735733z M204.5925598,50.0932884c-15.687149,0-27.5079803,12.2425346-27.5079803,28.4845772
			c0,16.242012,12.1049805,28.493454,28.1605225,28.493454c9.4948883,0,17.342865-3.8529968,23.3309631-11.4346848
			c0.4572754-0.5859222,0.3684692-1.4248886-0.2086029-1.8953934l-5.6463318-4.6342316
			c-0.3018188-0.2485809-0.7013092-0.3551254-1.0875092-0.2885437c-0.3861542,0.0621414-0.723526,0.2929764-0.9321442,0.6214447
			c-2.4902496,4.0083466-7.8569183,8.291893-15.4563751,8.291893c-8.9133453,0-16.0023041-6.5828934-17.4405518-15.8069992
			h41.5839081c0.7546082,0,1.3627167-0.6081314,1.3627167-1.3583069v-3.3070145
			C230.7511749,61.3725967,219.9912262,50.1997948,204.5925598,50.0932884 M187.9510651,73.2511368
			c0.878891-7.2753983,8.5005035-13.8228035,16.6282196-13.8228035c9.059845,0,14.7949066,5.2823296,15.3631134,13.8228035
			H187.9510651z M283.6542664,50.0932884c-5.6507874,0-13.552002,2.0907364-19.0163269,7.7548065v-5.0737152
			c0-0.7501717-0.6081848-1.3583107-1.362793-1.3583107h-7.3064423c-0.7546082,0-1.3627167,0.608139-1.3627167,1.3583107v83.3719025
			c0,0.7501678,0.6081085,1.3583069,1.3627167,1.3583069h7.3064423c0.7546082,0,1.362793-0.608139,1.362793-1.3583069V99.3120804
			c5.464325,5.6640701,13.3655396,7.7592392,19.0163269,7.7592392c16.7702026,0,28.9372864-11.9806442,28.9372864-28.493454
			C312.5915527,62.0739326,300.424469,50.0932884,283.6542664,50.0932884 M283.6542664,97.7318039
			c-11.0307922,0-19.3492432-8.2341843-19.3492432-19.1539383c0-10.9153137,8.3184509-19.1495323,19.3492432-19.1495323
			c10.7421265,0,18.243927,7.8791008,18.243927,19.1495323C301.8981934,89.8571777,294.3963928,97.7318039,283.6542664,97.7318039
			 M591.5335693,50.0932884c-6.0324097,0-12.3267822,2.9252357-16.2863159,7.2531815
			c-0.0354614-1.5713654-0.1154175-3.1516342-0.3019409-4.7318687c-0.0842285-0.6835938-0.6657715-1.1985321-1.3538208-1.1985321
			h-7.5328369c-0.3729248,0-0.7324219,0.1553802-0.9898071,0.4261398c-0.2575684,0.2752342-0.390686,0.6392288-0.3640137,1.0120964
			l0.119751,2.0552101c0.1998291,3.2803612,0.4306641,6.9912949,0.4306641,9.2240982v40.2521439
			c0,0.750206,0.6080933,1.3583145,1.3627319,1.3583145h7.3064575c0.7502441,0,1.3583374-0.6081085,1.3583374-1.3583145v-26.464859
			c0-18.27948,13.7827759-18.4925652,14.3687744-18.4925652c9.1397095,0,12.7042236,4.5987358,12.7042236,16.3973885v28.5600357
			c0,0.750206,0.6080933,1.3583145,1.3583374,1.3583145h7.3109131c0.7501831,0,1.362793-0.6081085,1.362793-1.3583145V71.635376
			C612.3878174,57.7415543,604.979187,50.0932884,591.5335693,50.0932884 M675.2340698,104.5500107
			c0.0843506,0.6835938,0.6657715,1.1940613,1.3538208,1.1940613h7.5284424c0.3773193,0,0.7368164-0.1509094,0.9943237-0.421669
			c0.2573853-0.275238,0.390564-0.6392288,0.3683472-1.0165329l-0.1242065-2.0552139
			c-0.2041626-3.2759247-0.4306641-6.9868927-0.4306641-9.2240982V52.7743797c0-0.7501717-0.6080933-1.3583107-1.3582764-1.3583107
			h-7.310791c-0.7502441,0-1.362793,0.608139-1.362793,1.3583107v26.4693336
			c0,18.27948-13.7784424,18.4880905-14.3643188,18.4880905c-9.1398315,0-12.7042236-4.5987015-12.7042236-16.3929138V52.7743797
			c0-0.7501717-0.6082153-1.3583107-1.3582764-1.3583107H639.15448c-0.7501831,0-1.3627319,0.608139-1.3627319,1.3583107v32.7548561
			c0,13.8938217,7.4085693,21.5420837,20.8540039,21.5420837c6.0280762,0,12.3225098-2.9297028,16.286499-7.2576447
			C674.972168,101.3806305,675.0431519,102.9653015,675.2340698,104.5500107 M790.3575439,104.3857574V71.635376
			c0-13.8938217-7.4041138-21.5420876-20.8540649-21.5420876c-6.8892212,0-13.3966675,3.5733337-16.9832764,9.1086807
			c-4.0528564-7.4041557-11.0929565-9.1086807-16.5749512-9.1086807c-5.8816528,0-11.7232056,2.6544724-15.5806885,6.8181686
			v-4.1370773c0-0.7501717-0.6080933-1.3583107-1.362793-1.3583107h-7.8613281
			c-0.3772583,0-0.7367554,0.1509438-0.9943237,0.4217033c-0.2573853,0.2752342-0.3905029,0.6391945-0.3639526,1.0165329
			l0.1865234,2.978508c0.1864014,2.8764343,0.3640137,5.5930557,0.3640137,8.411747v40.1411972
			c0,0.750206,0.6080933,1.3583145,1.3626099,1.3583145h7.3064575c0.7546997,0,1.362793-0.6081085,1.362793-1.3583145v-26.464859
			c0-17.9731941,11.9007568-18.4925652,13.2590942-18.4925652c8.5315552,0,11.7053833,4.0261269,11.7053833,14.8526421v30.1047821
			c0,0.750206,0.6082153,1.3583145,1.3583374,1.3583145h7.3109131c0.7546387,0,1.362793-0.6081085,1.362793-1.3583145V76.9265823
			c0-5.2601166,1.291748-17.4982491,13.2590332-17.4982491c8.5316162,0,11.7054443,4.0261269,11.7054443,14.8526421v30.1047821
			c0,0.750206,0.6082153,1.3583145,1.3582764,1.3583145h7.3109131
			C789.7494507,105.744072,790.3575439,105.1359634,790.3575439,104.3857574 M874.1911621,78.5778656
			c0-16.503933-12.1715698-28.4845772-28.9373779-28.4845772c-5.6508179,0-13.5565796,2.0907364-19.0163574,7.7548065V21.013876
			c0-0.7501717-0.6080933-1.3583088-1.362793-1.3583088h-7.3064575c-0.7546387,0-1.362793,0.6081371-1.362793,1.3583088v83.3718796
			c0,0.750206,0.6081543,1.3583145,1.362793,1.3583145h7.3064575c0.7546997,0,1.362793-0.6081085,1.362793-1.3583145v-5.0736771
			c5.4597778,5.6640701,13.3655396,7.7592392,19.0163574,7.7592392
			C862.0195923,107.0713196,874.1911621,95.0906754,874.1911621,78.5778656 M845.2537842,97.7318039
			c-11.0308228,0-19.3493652-8.2341843-19.3493652-19.1539383c0-10.9153137,8.3185425-19.1495323,19.3493652-19.1495323
			c10.7421265,0,18.239563,7.8791008,18.239563,19.1495323C863.4933472,89.8571777,855.9959106,97.7318039,845.2537842,97.7318039
			 M935.7145996,89.1070099c-0.3062744-0.2485809-0.7012939-0.3551254-1.0875244-0.2885437
			c-0.3861694,0.0621414-0.7279663,0.2929764-0.9321289,0.6214447c-2.4946899,4.0083466-7.8614502,8.291893-15.4607544,8.291893
			c-8.9135132,0-15.9979248-6.5828934-17.4406128-15.8069992h41.5838623c0.7545776,0,1.362793-0.6081314,1.362793-1.3583069
			v-3.3070145c0-15.8868866-10.7554932-27.0596886-26.1585693-27.1661949
			c-15.6871948,0-27.5081177,12.2425346-27.5081177,28.4845772c0,16.242012,12.1094971,28.493454,28.1606445,28.493454
			c9.494751,0,17.3427734-3.8529968,23.3308716-11.4346848c0.4572144-0.5859222,0.3684692-1.4248886-0.2041016-1.8953934
			L935.7145996,89.1070099z M917.5726929,59.4283333c9.0599365,0,14.7949829,5.2823296,15.3586426,13.8228035H900.944458
			C901.8233643,65.9757385,909.4405518,59.4283333,917.5726929,59.4283333 M968.2608032,68.8743591v35.5113983
			c0,0.750206,0.6080933,1.3583145,1.362793,1.3583145h7.3109131c0.750061,0,1.3583374-0.6081085,1.3583374-1.3583145V75.2708588
			c0-6.3032684,4.5586548-15.181118,14.6972656-15.181118c1.6511841,0,2.9030151,0.1598167,3.7330322,0.4660683
			c0.3729248,0.1420708,0.7901611,0.110981,1.1364136-0.0843277c0.350708-0.1953049,0.5948486-0.5282135,0.6747437-0.9232979
			l1.4382324-7.1644173c0.1419678-0.6968994-0.2797241-1.384964-0.9632568-1.5758324
			c-1.6868286-0.4838142-3.5822754-0.7146454-5.7972412-0.7146454c-7.3376465,0-12.4378662,3.3691216-15.4740601,7.4396133
			v-4.758522c0-0.7501717-0.6082764-1.3583107-1.3583374-1.3583107h-7.1999512
			c-0.3684692,0-0.7235107,0.1465073-0.9810791,0.4128304c-0.2530518,0.2618904-0.3905029,0.617012-0.3772583,0.9854431
			l0.2130737,6.5340996L968.2608032,68.8743591z M524.1774292,81.7694626c0,45.1616058-36.403717,81.7694168-81.3078613,81.7694168
			s-81.3077393-36.607811-81.3077393-81.7694168S397.9653931,0,442.8695679,0S524.1774292,36.6078224,524.1774292,81.7694626
			 M468.0560608,91.3797073c-0.5548706-1.278389-1.3893127-1.788887-3.009613-1.788887
			c-1.6201782,0-44.3138123,0.0310898-44.3138123,0.0310898s-1.8954163,0.0843277-2.7343445,1.6246338
			c-0.7235413,1.3095093-0.6081238,2.7388382-0.3063049,3.4490509c0.3063049,0.7102432,22.8161316,44.0785294,22.8161316,44.0785294
			s0.5059814,1.7178497,2.1306152,1.7178497c1.5536499,0,2.3305359-1.6246338,2.3305359-1.6246338l22.7139893-44.2072372
			C467.6832581,94.6601028,468.7263489,92.9377975,468.0560608,91.3797073 M467.6832581,68.8787918l-22.7139893-44.2072525
			c0,0-0.776886-1.6246338-2.3305359-1.6246338c-1.6246338,0-2.1306152,1.7223053-2.1306152,1.7223053
			s-22.5098267,43.3682861-22.8161316,44.0785294c-0.3018188,0.7102432-0.4172363,2.1351318,0.3063049,3.4490433
			c0.8389282,1.5358734,2.7343445,1.6202011,2.7343445,1.6202011s42.693634,0.0355225,44.3138123,0.0355225
			c1.6203003,0,2.4547424-0.5149384,3.009613-1.7933197C468.7263489,70.6055679,467.6832581,68.8787918,467.6832581,68.8787918"/>
	</g>
</g>
</svg>
