<svg version="1.1" id="Layer_1" xmlns:x="ns_extend;" xmlns:i="ns_ai;" xmlns:graph="ns_graphs;" xmlns="http://www.w3.org/2000/svg" xmlns:xlink="http://www.w3.org/1999/xlink" x="0px" y="0px" viewBox="0 0 395.2 75.5" style="enable-background:new 0 0 395.2 75.5;" xml:space="preserve">
 <style type="text/css">
  .st0{fill:#231F20;}
 </style>
 <metadata>
  <sfw xmlns="ns_sfw;">
   <slices>
   </slices>
   <sliceSourceBounds bottomLeftOrigin="true" height="75.5" width="395.2" x="2.9" y="-238">
   </sliceSourceBounds>
  </sfw>
 </metadata>
 <g>
  <path class="st0" d="M111.2,41.4c0,1,1.3,18.3-15.3,18.3c-14.2,0-12.9-14-12.9-15.2V3.8c0-1-1-2-2-2H4.8c-1.2,0-2,0.8-2,2V15
		c0,1,0.8,2,2,2h31.8c1.2,0,1.5,0.7,0.7,1.5l-36,39.1C0.7,58.4,0,59.9,0,60.9v10.9c0,1,0.8,2,2,2h61c1.2,0,2-0.8,2-2V63
		c0-0.7,0.2-1,0.5-1c0.5,0,0.8,1,1.3,1.6c1.6,3.1,7.3,11.7,21.8,11.7c15.5,0,19.8-7.1,21.1-9.7c0.5-0.8,0.8-1.8,1.3-1.8
		c0.2,0,0.7,0,0.7,0.8c0,0.3,0,0.2,0,0.7v6.3c0,1,0.8,2,2,2h14.8c1.2,0,2-0.8,2-2v-68c0-1-0.8-2-2-2h-15.8c-1.2,0-2,0.8-2,2v37.6
		L111.2,41.4z M27.7,58.2c-1.2,0-1.3-0.7-0.7-1.5l34.8-37.3c0.7-0.8,1.3-0.5,1.3,0.5v27.2c0,1,0,2.8,0.2,3.8l0.7,5.3
		c0.2,1-0.5,1.8-1.6,1.8H27.9L27.7,58.2z">
  </path>
  <path class="st0" d="M216.7,0c-12,0-19,9.9-19,9.9c-0.7,0.8-1.6,1-2.5,0.2c0,0-8.7-10.1-19.6-10.1c-12.2,0-18.3,7.8-20,10.1
		c-0.3,0.5-0.8,1.3-1,1.6c-0.3,0.3-0.7,0.5-0.7,0c0-0.3,0-0.8,0-1.2V3.8c0-1-0.8-2-2-2h-14.8c-1.2,0-2,0.8-2,2v68c0,1,0.8,2,2,2
		h15.8c1.2,0,2-0.8,2-2V31.8c0-1-0.3-16,12.4-16c11.9,0,11.9,12.7,11.9,12.7v43.2c0,1,0.8,2,2,2h15.8c1.2,0,2-0.8,2-2V32.5
		c0-1-0.2-16.7,12-16.7c12,0,12.2,15,12.2,16.2v39.8c0,1,0.8,2,2,2h15.8c1.2,0,2-0.8,2-2V25.9c0-1,0.5-25.9-26.2-25.9L216.7,0z">
  </path>
  <path class="st0" d="M357.8,58.2c-1.2,0-1.5-0.7-0.7-1.5l35.3-37.9c0.7-0.8,1.3-2.3,1.3-3.3V3.8c0-1-1-2-2-2h-56.9
		c-1.2,0-2,0.8-2,2V15c0,0.8-0.2,1-0.3,1c-0.2,0-0.3,0-0.5-0.3c0,0-6.3-15.7-29.9-15.7C275.1,0,268,24.7,268,24.7
		c-0.3,1-0.7,1-0.7-0.2V3.8c0-1-1-2-2-2h-15.8c-1.2,0-2,0.8-2,2v68c0,1,0.8,2,2,2h15.8c1.2,0,2-0.8,2-2V50.3c0-1,0.5-1.2,1-0.3
		c0,0,3,25.6,35.3,25.6c19.3,0,24.9-9.9,24.9-9.9c0.3-0.3,0.7-0.5,1-0.3c0.3,0.2,0.7,0.3,0.7,1.3v5.3c0,1,0.8,2,2,2h61
		c1.2,0,2-0.8,2-2V60.2c0-1-1-2-2-2H357.8L357.8,58.2L357.8,58.2z M301.9,15.7c13.2,0,14.4,13.5,14.4,13.5c0.2,1,0.2,1.6-1,1.6
		h-26.7c-1.2,0-1.5-0.7-1.3-1.8C287.2,29,288.8,15.7,301.9,15.7L301.9,15.7z M317.7,52.8c-1.2,0-2,0.2-2.5,1.3c0,0-3,6.6-11.7,6.6
		C287.5,60.7,286,45,286,45c-0.2-1,0.7-2,1.8-2h47.5c1.2,0,2-0.8,2-1.6c0-12.2-4-22.4-4-22.4c-0.3-1,0.3-1.8,1.3-1.8h31.8
		c1.2,0,1.5,0.7,0.7,1.5l-30,32.7c-0.7,0.8-1.8,1.5-3.3,1.5h-16.3H317.7z">
  </path>
 </g>
</svg>